<?xml version="1.0" standalone="no"?>
<!DOCTYPE svg PUBLIC "-//W3C//DTD SVG 20010904//EN"
 "http://www.w3.org/TR/2001/REC-SVG-20010904/DTD/svg10.dtd">
<svg version="1.0" xmlns="http://www.w3.org/2000/svg"
 width="1500.000000pt" height="750.000000pt" viewBox="0 0 1500.000000 750.000000"
 preserveAspectRatio="xMidYMid meet">

<g transform="translate(0.000000,750.000000) scale(0.100000,-0.100000)"
fill="#000000" stroke="none">
<path d="M0 3750 l0 -3750 7500 0 7500 0 0 3750 0 3750 -7500 0 -7500 0 0
-3750z m7869 3515 c812 -113 1499 -455 2052 -1022 527 -539 858 -1216 964
-1973 23 -157 31 -599 15 -772 -39 -437 -157 -852 -351 -1239 -165 -330 -362
-609 -613 -867 -560 -576 -1265 -930 -2066 -1037 -170 -23 -529 -31 -716 -16
-1501 121 -2755 1194 -3108 2662 -65 269 -89 488 -90 799 -1 260 8 373 45 595
182 1085 884 2033 1869 2525 416 208 822 321 1310 364 107 9 580 -3 689 -19z"/>
<path d="M7220 7024 c-19 -2 -84 -9 -145 -15 -873 -88 -1688 -558 -2240 -1294
l-67 -90 958 -5 959 -5 220 -164 c121 -90 277 -207 348 -259 l127 -96 0 -1382
0 -1383 -122 -87 c-68 -48 -154 -111 -193 -139 -38 -28 -143 -104 -231 -168
l-162 -117 -886 0 -887 0 63 -78 c82 -101 290 -309 398 -398 478 -395 1004
-630 1630 -725 122 -19 189 -23 425 -23 296 -1 392 7 620 50 455 87 887 270
1253 531 213 153 448 367 600 548 l76 90 -810 3 -809 3 -170 124 c-93 69 -250
183 -347 253 l-177 127 2 1389 2 1389 344 259 343 258 402 0 401 -1 165 -124
165 -124 22 47 c13 26 38 82 57 125 l35 77 250 0 c138 0 251 4 251 9 0 9 -40
64 -149 201 -99 125 -347 373 -491 489 -454 368 -1004 604 -1600 686 -109 15
-550 28 -630 19z"/>
<path d="M10306 5230 c-7 -30 -156 -994 -156 -1009 0 -8 -129 -11 -415 -11
l-415 0 0 270 0 270 -470 0 c-258 0 -470 -2 -470 -4 0 -2 54 -43 120 -90 l120
-87 2 -827 3 -827 23 -51 c27 -60 89 -123 152 -156 43 -22 56 -23 283 -26
l238 -3 -1 233 c0 128 -1 241 0 251 0 16 28 17 450 17 l450 0 2 -491 3 -492
72 139 c162 314 271 654 324 1012 30 199 37 605 14 802 -29 254 -67 434 -141
661 -37 115 -118 319 -158 397 -23 44 -25 45 -30 22z"/>
<path d="M4392 4873 c-5 -10 -23 -65 -41 -123 -218 -734 -180 -1476 112 -2187
58 -141 90 -204 185 -372 l77 -133 3 1293 c1 712 0 1299 -2 1305 -2 6 -44 38
-93 71 -48 34 -120 84 -160 112 -64 45 -73 49 -81 34z"/>
<path d="M5573 4659 l127 -91 0 -945 0 -944 233 3 c224 3 234 4 282 28 64 32
124 92 155 155 l25 50 0 795 0 795 -26 56 c-33 71 -87 125 -158 158 l-56 26
-355 3 -355 3 128 -92z"/>
</g>
</svg>
